<svg width="16" height="17" viewBox="0 0 16 17" fill="none" xmlns="http://www.w3.org/2000/svg">
<g id="Logo/Style3">
<path id="Union" fill-rule="evenodd" clip-rule="evenodd" d="M10.9704 0.5H8.30769V5.62H10.9704V0.5ZM10.9704 5.62V11.38V12.34H16V16.5H10.9704H10.0828H8.30768V11.38V5.62H10.9704Z" fill="#FFFFED"/>
<g id="Union_2">
<mask id="path-2-inside-1_503_1773" fill="white">
<path fill-rule="evenodd" clip-rule="evenodd" d="M2.76923 0.5H4H5.23077H8V5.83333V11.1667V11.2692V16.5H4H0V11.2692V11.1667V5.83333V0.5H2.76923ZM5.23077 11.1667V5.83333H4H2.76923V11.1667H4H5.23077Z"/>
</mask>
<path fill-rule="evenodd" clip-rule="evenodd" d="M2.76923 0.5H4H5.23077H8V5.83333V11.1667V11.2692V16.5H4H0V11.2692V11.1667V5.83333V0.5H2.76923ZM5.23077 11.1667V5.83333H4H2.76923V11.1667H4H5.23077Z" fill="#FFFFED"/>
<path d="M8 0.5H9V-0.5H8V0.5ZM8 16.5V17.5H9V16.5H8ZM0 16.5H-1V17.5H0V16.5ZM0 0.5V-0.5H-1V0.5H0ZM5.23077 5.83333H6.23077V4.83333H5.23077V5.83333ZM5.23077 11.1667V12.1667H6.23077V11.1667H5.23077ZM2.76923 5.83333V4.83333H1.76923V5.83333H2.76923ZM2.76923 11.1667H1.76923V12.1667H2.76923V11.1667ZM4 -0.5H2.76923V1.5H4V-0.5ZM5.23077 -0.5H4V1.5H5.23077V-0.5ZM8 -0.5H5.23077V1.5H8V-0.5ZM9 5.83333V0.5H7V5.83333H9ZM9 11.1667V5.83333H7V11.1667H9ZM7 11.1667V11.2692H9V11.1667H7ZM7 11.2692V16.5H9V11.2692H7ZM8 15.5H4V17.5H8V15.5ZM0 17.5H4V15.5H0V17.5ZM-1 11.2692V16.5H1V11.2692H-1ZM-1 11.1667V11.2692H1V11.1667H-1ZM-1 5.83333V11.1667H1V5.83333H-1ZM-1 0.5V5.83333H1V0.5H-1ZM2.76923 -0.5H0V1.5H2.76923V-0.5ZM4.23077 5.83333V11.1667H6.23077V5.83333H4.23077ZM4 6.83333H5.23077V4.83333H4V6.83333ZM2.76923 6.83333H4V4.83333H2.76923V6.83333ZM3.76923 11.1667V5.83333H1.76923V11.1667H3.76923ZM4 10.1667H2.76923V12.1667H4V10.1667ZM4 12.1667H5.23077V10.1667H4V12.1667Z" fill="#FFFFED" mask="url(#path-2-inside-1_503_1773)"/>
</g>
</g>
</svg>
